HIERARCHY
ROOT hip
{
  OFFSET 5.70873 43.8894 -1.52928
  CHANNELS 6 Xposition Yposition Zposition Zrotation Xrotation Yrotation
  JOINT abdomen
  {
    OFFSET 0 5.99393 0.287273
    CHANNELS 6 Xposition Yposition Zposition Zrotation Xrotation Yrotation
    JOINT chest
    {
      OFFSET 0 6.65865 -0.856112
      CHANNELS 6 Xposition Yposition Zposition Zrotation Xrotation Yrotation
      JOINT neck
      {
        OFFSET 0 8.65624 -1.42685
        CHANNELS 6 Xposition Yposition Zposition Zrotation Xrotation Yrotation
        JOINT head
        {
          OFFSET 0 3.80999 -0.190247
          CHANNELS 6 Xposition Yposition Zposition Zrotation Xrotation Yrotation
          End Site
          {
            OFFSET 0 0 0
          }
        }
      }
      JOINT rCollar
      {
        OFFSET -1.4963 7.5744 -1.52136
        CHANNELS 6 Xposition Yposition Zposition Zrotation Xrotation Yrotation
        JOINT rShldr
        {
          OFFSET -5.47506 -0.905672 0.485692
          CHANNELS 6 Xposition Yposition Zposition Zrotation Xrotation Yrotation
          JOINT rForeArm
          {
            OFFSET -11.3069 -0.201091 0.618544
            CHANNELS 6 Xposition Yposition Zposition Zrotation Xrotation Yrotation
            JOINT rHand
            {
              OFFSET -9.61414 -0.254739 3.48553
              CHANNELS 6 Xposition Yposition Zposition Zrotation Xrotation Yrotation
              JOINT rThumb1
              {
                OFFSET 0.176263 -0.07068 1.26622
                CHANNELS 6 Xposition Yposition Zposition Zrotation Xrotation Yrotation
                JOINT rThumb2
                {
                  OFFSET -1.04683 -0.546484 1.82182
                  CHANNELS 6 Xposition Yposition Zposition Zrotation Xrotation Yrotation
                  JOINT rThumb3
                  {
                    OFFSET -0.993472 -0.621916 0.655506
                    CHANNELS 6 Xposition Yposition Zposition Zrotation Xrotation Yrotation
                    End Site
                    {
                      OFFSET -0.996134 -0.66263 0.644615
                    }
                  }
                }
              }
              JOINT rIndex1
              {
                OFFSET -2.64253 0.566363 2.4162
                CHANNELS 6 Xposition Yposition Zposition Zrotation Xrotation Yrotation
                JOINT rIndex2
                {
                  OFFSET -1.39394 -0.635138 0.899356
                  CHANNELS 6 Xposition Yposition Zposition Zrotation Xrotation Yrotation
                  JOINT rIndex3
                  {
                    OFFSET -0.622395 -0.856016 0.402182
                    CHANNELS 6 Xposition Yposition Zposition Zrotation Xrotation Yrotation
                    End Site
                    {
                      OFFSET -0.472476 -0.801802 0.34216
                    }
                  }
                }
              }
              JOINT rMid1
              {
                OFFSET -3.20814 0.514427 1.52547
                CHANNELS 6 Xposition Yposition Zposition Zrotation Xrotation Yrotation
                JOINT rMid2
                {
                  OFFSET -1.56545 -0.497974 0.68919
                  CHANNELS 6 Xposition Yposition Zposition Zrotation Xrotation Yrotation
                  JOINT rMid3
                  {
                    OFFSET -0.679943 -1.17582 0.444246
                    CHANNELS 6 Xposition Yposition Zposition Zrotation Xrotation Yrotation
                    End Site
                    {
                      OFFSET -0.343874 -0.941341 0.267611
                    }
                  }
                }
              }
              JOINT rRing1
              {
                OFFSET -3.47877 0.200518 0.597719
                CHANNELS 6 Xposition Yposition Zposition Zrotation Xrotation Yrotation
                JOINT rRing2
                {
                  OFFSET -1.28208 -0.53155 0.44672
                  CHANNELS 6 Xposition Yposition Zposition Zrotation Xrotation Yrotation
                  JOINT rRing3
                  {
                    OFFSET -0.710288 -0.970167 0.4032
                    CHANNELS 6 Xposition Yposition Zposition Zrotation Xrotation Yrotation
                    End Site
                    {
                      OFFSET -0.403228 -0.950952 0.378354
                    }
                  }
                }
              }
              JOINT rPinky1
              {
                OFFSET -3.42483 -0.278904 -0.240415
                CHANNELS 6 Xposition Yposition Zposition Zrotation Xrotation Yrotation
                JOINT rPinky2
                {
                  OFFSET -1.05787 -0.635999 0.156459
                  CHANNELS 6 Xposition Yposition Zposition Zrotation Xrotation Yrotation
                  JOINT rPinky3
                  {
                    OFFSET -0.42815 -0.754232 0.287187
                    CHANNELS 6 Xposition Yposition Zposition Zrotation Xrotation Yrotation
                    End Site
                    {
                      OFFSET -0.235717 -0.725605 0.279416
                    }
                  }
                }
              }
            }
          }
        }
      }
      JOINT lCollar
      {
        OFFSET 1.4963 7.5744 -1.52136
        CHANNELS 6 Xposition Yposition Zposition Zrotation Xrotation Yrotation
        JOINT lShldr
        {
          OFFSET 5.47506 -0.905672 0.485692
          CHANNELS 6 Xposition Yposition Zposition Zrotation Xrotation Yrotation
          JOINT lForeArm
          {
            OFFSET 11.3069 -0.201091 0.618544
            CHANNELS 6 Xposition Yposition Zposition Zrotation Xrotation Yrotation
            JOINT lHand
            {
              OFFSET 9.61414 -0.254739 3.48553
              CHANNELS 6 Xposition Yposition Zposition Zrotation Xrotation Yrotation
              JOINT lThumb1
              {
                OFFSET -0.176263 -0.07068 1.26622
                CHANNELS 6 Xposition Yposition Zposition Zrotation Xrotation Yrotation
                JOINT lThumb2
                {
                  OFFSET 1.04683 -0.546484 1.82182
                  CHANNELS 6 Xposition Yposition Zposition Zrotation Xrotation Yrotation
                  JOINT lThumb3
                  {
                    OFFSET 0.993472 -0.621916 0.655506
                    CHANNELS 6 Xposition Yposition Zposition Zrotation Xrotation Yrotation
                    End Site
                    {
                      OFFSET 0.996134 -0.66263 0.644615
                    }
                  }
                }
              }
              JOINT lIndex1
              {
                OFFSET 2.64253 0.566363 2.4162
                CHANNELS 6 Xposition Yposition Zposition Zrotation Xrotation Yrotation
                JOINT lIndex2
                {
                  OFFSET 1.39394 -0.635138 0.899356
                  CHANNELS 6 Xposition Yposition Zposition Zrotation Xrotation Yrotation
                  JOINT lIndex3
                  {
                    OFFSET 0.622395 -0.856016 0.402182
                    CHANNELS 6 Xposition Yposition Zposition Zrotation Xrotation Yrotation
                    End Site
                    {
                      OFFSET 0.472476 -0.801802 0.34216
                    }
                  }
                }
              }
              JOINT lMid1
              {
                OFFSET 3.20814 0.514427 1.52547
                CHANNELS 6 Xposition Yposition Zposition Zrotation Xrotation Yrotation
                JOINT lMid2
                {
                  OFFSET 1.56545 -0.497974 0.68919
                  CHANNELS 6 Xposition Yposition Zposition Zrotation Xrotation Yrotation
                  JOINT lMid3
                  {
                    OFFSET 0.679943 -1.17582 0.444246
                    CHANNELS 6 Xposition Yposition Zposition Zrotation Xrotation Yrotation
                    End Site
                    {
                      OFFSET 0.343874 -0.941341 0.267611
                    }
                  }
                }
              }
              JOINT lRing1
              {
                OFFSET 3.47877 0.200518 0.597719
                CHANNELS 6 Xposition Yposition Zposition Zrotation Xrotation Yrotation
                JOINT lRing2
                {
                  OFFSET 1.28208 -0.53155 0.44672
                  CHANNELS 6 Xposition Yposition Zposition Zrotation Xrotation Yrotation
                  JOINT lRing3
                  {
                    OFFSET 0.710288 -0.970167 0.4032
                    CHANNELS 6 Xposition Yposition Zposition Zrotation Xrotation Yrotation
                    End Site
                    {
                      OFFSET 0.403228 -0.950952 0.378354
                    }
                  }
                }
              }
              JOINT lPinky1
              {
                OFFSET 3.42483 -0.278904 -0.240415
                CHANNELS 6 Xposition Yposition Zposition Zrotation Xrotation Yrotation
                JOINT lPinky2
                {
                  OFFSET 1.05787 -0.635999 0.156459
                  CHANNELS 6 Xposition Yposition Zposition Zrotation Xrotation Yrotation
                  JOINT lPinky3
                  {
                    OFFSET 0.42815 -0.754232 0.287187
                    CHANNELS 6 Xposition Yposition Zposition Zrotation Xrotation Yrotation
                    End Site
                    {
                      OFFSET 0.235717 -0.725605 0.279416
                    }
                  }
                }
              }
            }
          }
        }
      }
    }
  }
  JOINT rThigh
  {
    OFFSET -4.17848 -1.02486 0.046356
    CHANNELS 6 Xposition Yposition Zposition Zrotation Xrotation Yrotation
    JOINT rShin
    {
      OFFSET 1.27155 -17.465 -0.237699
      CHANNELS 6 Xposition Yposition Zposition Zrotation Xrotation Yrotation
      JOINT rFoot
      {
        OFFSET 0.529163 -17.3815 -1.19582
        CHANNELS 6 Xposition Yposition Zposition Zrotation Xrotation Yrotation
        JOINT rToe
        {
          OFFSET -0.711591 -4.4863 4.0596
          CHANNELS 6 Xposition Yposition Zposition Zrotation Xrotation Yrotation
          End Site
          {
            OFFSET -0.869915 -1.10655 1.99006
          }
        }
      }
    }
  }
  JOINT lThigh
  {
    OFFSET 4.17848 -1.02486 0.046356
    CHANNELS 6 Xposition Yposition Zposition Zrotation Xrotation Yrotation
    JOINT lShin
    {
      OFFSET -1.27155 -17.465 -0.237699
      CHANNELS 6 Xposition Yposition Zposition Zrotation Xrotation Yrotation
      JOINT lFoot
      {
        OFFSET -0.529163 -17.3815 -1.19582
        CHANNELS 6 Xposition Yposition Zposition Zrotation Xrotation Yrotation
        JOINT lToe
        {
          OFFSET 0.711591 -4.4863 4.0596
          CHANNELS 6 Xposition Yposition Zposition Zrotation Xrotation Yrotation
          End Site
          {
            OFFSET 0.869915 -1.10655 1.99006
          }
        }
      }
    }
  }
}
MOTION
Frames:	4
Frame Time:	0.0333333
-2.25039 43.8234 -1.45881 3.79865 -4.60249 -3.55088 2.22045e-016 5.99393 0.287273 -3.64218 0.91208 -0.892335 4.44089e-016 6.65865 -0.856112 -7.27123 1.87885 -1.72525 -1.77636e-015 8.65624 -1.42685 6.02743 -0.606325 -1.10696 0 3.80999 -0.190247 -1.86101 2.81196 -3.18035 -1.4963 7.5744 -1.52136 2.63825 0.132965 3.32271 -5.47506 -0.905672 0.485692 85.3017 -7.52277 -8.99827 -11.3069 -0.201091 0.618544 -0.426273 -13.2143 13.7369 -9.61414 -0.254739 3.48553 -7.00194 3.98089 6.11641 0.176263 -0.07068 1.26622 -0.882523 0.973602 -2.69656 -1.04683 -0.546484 1.82182 -0.883027 0.973771 -2.69651 -0.993472 -0.621916 0.655506 -0.882758 0.973615 -2.6963 -2.64253 0.566363 2.4162 5.3926 1.39448 -0.858277 -1.39394 -0.635138 0.899356 5.39117 1.39402 -0.857994 -0.622395 -0.856016 0.402182 5.39002 1.39393 -0.858256 -3.20814 0.514427 1.52547 5.3388 1.59854 -0.832744 -1.56545 -0.497974 0.68919 5.33943 1.5992 -0.832994 -0.679943 -1.17582 0.444246 5.33959 1.59895 -0.833246 -3.47877 0.200518 0.597719 5.25254 1.76571 -1.03735 -1.28208 -0.53155 0.44672 5.2545 1.76662 -1.03838 -0.710288 -0.970167 0.4032 5.2548 1.76674 -1.03816 -3.42483 -0.278904 -0.240415 5.21688 1.90734 -0.964928 -1.05787 -0.635999 0.156459 5.2193 1.90807 -0.965581 -0.42815 -0.754232 0.287187 5.21866 1.90803 -0.965455 1.4963 7.5744 -1.52136 3.53096 0.526981 3.41025 5.47506 -0.905672 0.485692 -79.8518 -8.45553 7.23289 11.3069 -0.201091 0.618544 -31.8027 -5.31998 -94.9791 9.61414 -0.254739 3.48553 -9.46046 -45.2543 -22.0171 -0.176263 -0.07068 1.26622 -1.46497 -0.399004 -2.59994 1.04683 -0.546484 1.82182 -1.46553 -0.399256 -2.59981 0.993472 -0.621916 0.655506 -1.46521 -0.399161 -2.59962 2.64253 0.566363 2.4162 22.462 -9.29243 -7.48164 1.39394 -0.635138 0.899356 4.95805 -1.75431 -1.91908 0.622395 -0.856016 0.402182 4.9569 -1.75419 -1.91909 3.20814 0.514427 1.52547 28.7832 -13.755 -8.6959 1.56545 -0.497974 0.68919 4.88865 -1.95432 -1.89845 0.679943 -1.17582 0.444246 4.88878 -1.95416 -1.89873 3.47877 0.200518 0.597719 28.4079 -15.6956 -7.26156 1.28208 -0.53155 0.44672 4.74271 -2.09479 -2.09715 0.710288 -0.970167 0.4032 4.74306 -2.09495 -2.09697 3.42483 -0.278904 -0.240415 30.86 -17.5147 -0.0295772 1.05787 -0.635999 0.156459 4.70672 -2.2372 -2.02914 0.42815 -0.754232 0.287187 4.69579 -2.25478 -2.03118 -4.17848 -1.02486 0.046356 -18.7951 -7.24094 -3.90319 1.27155 -17.465 -0.237699 0.76117 7.91084 0.971417 0.529163 -17.3815 -1.19582 14.6587 3.91047 -7.47923 -0.711591 -4.4863 4.0596 -0.360867 -2.64947 0.0627991 4.17848 -1.02486 0.046356 -7.7294 9.18817 -5.0967 -1.27155 -17.465 -0.237699 0.0922413 -2.50869 0.505091 -0.529163 -17.3815 -1.19582 6.83513 -1.82745 10.3889 0.711591 -4.4863 4.0596 -0.141984 -0.236541 0.0127612 
-2.25062 43.8206 -1.44342 3.79132 -4.62517 -3.5501 -4.44089e-016 5.99393 0.287273 -3.60763 0.832709 -0.924508 0 6.65865 -0.856112 -7.2026 1.72182 -1.79508 0 8.65624 -1.42685 6.33293 -0.567018 -0.0258717 0 3.80999 -0.190247 -1.81037 2.78338 -2.0324 -1.4963 7.5744 -1.52136 2.77406 0.107997 3.32041 -5.47506 -0.905672 0.485692 85.1392 -7.54774 -9.03876 -11.3069 -0.201091 0.618544 -0.411517 -13.1364 13.7636 -9.61414 -0.254739 3.48553 -6.99444 3.99185 6.05253 0.176263 -0.07068 1.26622 -0.882516 0.97358 -2.69656 -1.04683 -0.546484 1.82182 -0.883022 0.973781 -2.6965 -0.993472 -0.621916 0.655506 -0.882763 0.97361 -2.69628 -2.64253 0.566363 2.4162 5.39259 1.39449 -0.858281 -1.39394 -0.635138 0.899356 5.39115 1.39402 -0.857989 -0.622395 -0.856016 0.402182 5.39001 1.39394 -0.858253 -3.20814 0.514427 1.52547 5.3388 1.59854 -0.832756 -1.56545 -0.497974 0.68919 5.33941 1.59924 -0.832973 -0.679943 -1.17582 0.444246 5.3396 1.59896 -0.833234 -3.47877 0.200518 0.597719 5.25254 1.76572 -1.03736 -1.28208 -0.53155 0.44672 5.25449 1.76662 -1.03839 -0.710288 -0.970167 0.4032 5.25479 1.76673 -1.03815 -3.42483 -0.278904 -0.240415 5.21685 1.9074 -0.964921 -1.05787 -0.635999 0.156459 5.2193 1.90807 -0.965586 -0.42815 -0.754232 0.287187 5.21865 1.90804 -0.965446 1.4963 7.5744 -1.52136 3.35852 0.434286 3.36799 5.47506 -0.905672 0.485692 -79.6528 -8.4887 7.42459 11.3069 -0.201091 0.618544 -31.8046 -5.0042 -94.4142 9.61414 -0.254739 3.48553 -10.0033 -45.0611 -21.2529 -0.176263 -0.07068 1.26622 -1.46497 -0.399004 -2.59993 1.04683 -0.546484 1.82182 -1.46554 -0.399275 -2.59982 0.993472 -0.621916 0.655506 -1.46522 -0.399179 -2.59962 2.64253 0.566363 2.4162 22.462 -9.29243 -7.48165 1.39394 -0.635138 0.899356 4.95804 -1.75432 -1.91907 0.622395 -0.856016 0.402182 4.95691 -1.75419 -1.9191 3.20814 0.514427 1.52547 28.7832 -13.7551 -8.6959 1.56545 -0.497974 0.68919 4.88865 -1.95436 -1.89842 0.679943 -1.17582 0.444246 4.88879 -1.95421 -1.89867 3.47877 0.200518 0.597719 28.4079 -15.6956 -7.26156 1.28208 -0.53155 0.44672 4.74271 -2.09483 -2.09712 0.710288 -0.970167 0.4032 4.74303 -2.09489 -2.09708 3.42483 -0.278904 -0.240415 30.86 -17.5147 -0.0295752 1.05787 -0.635999 0.156459 4.70675 -2.23711 -2.02922 0.42815 -0.754232 0.287187 4.69615 -2.25417 -2.0311 -4.17848 -1.02486 0.046356 -18.7967 -7.23372 -3.89228 1.27155 -17.465 -0.237699 0.769578 7.99385 0.966105 0.529163 -17.3815 -1.19582 14.6561 3.845 -7.46287 -0.711591 -4.4863 4.0596 -0.360796 -2.64947 0.0626911 4.17848 -1.02486 0.046356 -7.7341 9.16765 -5.01672 -1.27155 -17.465 -0.237699 0.093469 -2.33378 0.500021 -0.529163 -17.3815 -1.19582 6.85966 -2.01951 10.3371 0.711591 -4.4863 4.0596 -0.117699 -0.202347 0.011009 
-2.25047 43.8175 -1.43285 3.78277 -4.64208 -3.5322 -4.44089e-016 5.99393 0.287273 -3.57683 0.758696 -0.962762 4.44089e-016 6.65865 -0.856112 -7.14144 1.57592 -1.87656 -1.77636e-015 8.65624 -1.42685 6.59312 -0.648467 1.13612 -2.22045e-016 3.80999 -0.190247 -1.77676 2.60169 -0.83405 -1.4963 7.5744 -1.52136 2.91735 0.0838978 3.31123 -5.47506 -0.905672 0.485692 84.9742 -7.57081 -9.06697 -11.3069 -0.201091 0.618544 -0.396694 -13.0562 13.7959 -9.61414 -0.254739 3.48553 -6.96116 3.97863 5.97622 0.176263 -0.07068 1.26622 -0.88253 0.973556 -2.69655 -1.04683 -0.546484 1.82182 -0.883016 0.973802 -2.69649 -0.993472 -0.621916 0.655506 -0.882764 0.973607 -2.69628 -2.64253 0.566363 2.4162 5.39257 1.39453 -0.85828 -1.39394 -0.635138 0.899356 5.39117 1.39402 -0.857979 -0.622395 -0.856016 0.402182 5.39 1.39394 -0.858252 -3.20814 0.514427 1.52547 5.3388 1.59856 -0.832745 -1.56545 -0.497974 0.68919 5.3394 1.59934 -0.832935 -0.679943 -1.17582 0.444246 5.33957 1.59899 -0.833211 -3.47877 0.200518 0.597719 5.25254 1.76574 -1.03736 -1.28208 -0.53155 0.44672 5.25448 1.76662 -1.03837 -0.710288 -0.970167 0.4032 5.25477 1.76674 -1.03816 -3.42483 -0.278904 -0.240415 5.21688 1.90725 -0.964904 -1.05787 -0.635999 0.156459 5.21929 1.90808 -0.965577 -0.42815 -0.754232 0.287187 5.21866 1.90806 -0.965423 1.4963 7.5744 -1.52136 3.2619 0.372342 3.33211 5.47506 -0.905672 0.485692 -79.5808 -8.48931 7.58356 11.3069 -0.201091 0.618544 -31.8027 -4.69425 -93.8961 9.61414 -0.254739 3.48553 -10.3908 -44.844 -20.4614 -0.176263 -0.07068 1.26622 -1.46496 -0.399004 -2.59995 1.04683 -0.546484 1.82182 -1.46557 -0.399305 -2.59979 0.993472 -0.621916 0.655506 -1.46523 -0.39923 -2.5996 2.64253 0.566363 2.4162 22.4619 -9.29247 -7.48167 1.39394 -0.635138 0.899356 4.95804 -1.75432 -1.91907 0.622395 -0.856016 0.402182 4.95691 -1.75419 -1.91909 3.20814 0.514427 1.52547 28.7832 -13.7551 -8.69589 1.56545 -0.497974 0.68919 4.88864 -1.95444 -1.89837 0.679943 -1.17582 0.444246 4.88878 -1.95412 -1.89878 3.47877 0.200518 0.597719 28.4079 -15.6956 -7.26156 1.28208 -0.53155 0.44672 4.74271 -2.09492 -2.09706 0.710288 -0.970167 0.4032 4.74303 -2.0949 -2.09706 3.42483 -0.278904 -0.240415 30.86 -17.5147 -0.0295846 1.05787 -0.635999 0.156459 4.70675 -2.23711 -2.02922 0.42815 -0.754232 0.287187 4.69651 -2.25356 -2.03103 -4.17848 -1.02486 0.046356 -18.7972 -7.23675 -3.86934 1.27155 -17.465 -0.237699 0.778724 8.08191 0.943788 0.529163 -17.3815 -1.19582 14.6554 3.78078 -7.46067 -0.711591 -4.4863 4.0596 -0.360794 -2.64945 0.0626879 4.17848 -1.02486 0.046356 -7.72601 9.24778 -4.92737 -1.27155 -17.465 -0.237699 0.0906882 -2.37777 0.493139 -0.529163 -17.3815 -1.19582 6.89521 -2.11687 10.2458 0.711591 -4.4863 4.0596 -0.0934189 -0.168147 0.00922489 
-2.25039 43.8145 -1.42277 3.77423 -4.67264 -3.51473 -5.55112e-016 5.99393 0.287273 -3.55066 0.682832 -0.99723 0 6.65865 -0.856112 -7.08976 1.42597 -1.95048 -1.77636e-015 8.65624 -1.42685 6.81554 -0.831819 2.35075 2.22045e-016 3.80999 -0.190247 -1.75166 2.42407 0.385027 -1.4963 7.5744 -1.52136 3.04632 0.0602883 3.31222 -5.47506 -0.905672 0.485692 84.843 -7.61295 -9.14579 -11.3069 -0.201091 0.618544 -0.401988 -12.983 13.7914 -9.61414 -0.254739 3.48553 -6.93529 3.94961 5.94597 0.176263 -0.07068 1.26622 -0.882502 0.973501 -2.69656 -1.04683 -0.546484 1.82182 -0.883069 0.973829 -2.69647 -0.993472 -0.621916 0.655506 -0.882766 0.973613 -2.69629 -2.64253 0.566363 2.4162 5.39256 1.3946 -0.858288 -1.39394 -0.635138 0.899356 5.39115 1.39402 -0.857991 -0.622395 -0.856016 0.402182 5.39003 1.39394 -0.858251 -3.20814 0.514427 1.52547 5.33879 1.5986 -0.832762 -1.56545 -0.497974 0.68919 5.33943 1.59915 -0.833014 -0.679943 -1.17582 0.444246 5.33958 1.59905 -0.833178 -3.47877 0.200518 0.597719 5.25252 1.76578 -1.03735 -1.28208 -0.53155 0.44672 5.25448 1.76663 -1.03837 -0.710288 -0.970167 0.4032 5.2548 1.76674 -1.03815 -3.42483 -0.278904 -0.240415 5.21689 1.90725 -0.964902 -1.05787 -0.635999 0.156459 5.21927 1.9081 -0.965575 -0.42815 -0.754232 0.287187 5.21865 1.90812 -0.965352 1.4963 7.5744 -1.52136 3.24468 0.349971 3.31871 5.47506 -0.905672 0.485692 -79.6083 -8.45122 7.73788 11.3069 -0.201091 0.618544 -31.7938 -4.38093 -93.4165 9.61414 -0.254739 3.48553 -10.6171 -44.6349 -19.6333 -0.176263 -0.07068 1.26622 -1.46498 -0.399017 -2.59994 1.04683 -0.546484 1.82182 -1.46562 -0.399366 -2.59976 0.993472 -0.621916 0.655506 -1.46526 -0.399308 -2.59958 2.64253 0.566363 2.4162 22.4619 -9.2925 -7.48164 1.39394 -0.635138 0.899356 4.95804 -1.75433 -1.91906 0.622395 -0.856016 0.402182 4.95691 -1.7542 -1.91909 3.20814 0.514427 1.52547 28.7831 -13.7552 -8.69586 1.56545 -0.497974 0.68919 4.88867 -1.95427 -1.89847 0.679943 -1.17582 0.444246 4.88878 -1.95412 -1.89878 3.47877 0.200518 0.597719 28.4079 -15.6956 -7.26155 1.28208 -0.53155 0.44672 4.74272 -2.09474 -2.09718 0.710288 -0.970167 0.4032 4.74304 -2.0949 -2.09708 3.42483 -0.278904 -0.240415 30.86 -17.5147 -0.0295587 1.05787 -0.635999 0.156459 4.70674 -2.23711 -2.02921 0.42815 -0.754232 0.287187 4.69687 -2.25295 -2.03096 -4.17848 -1.02486 0.046356 -18.8029 -7.21962 -3.87052 1.27155 -17.465 -0.237699 0.794653 8.15798 0.935115 0.529163 -17.3815 -1.19582 14.6488 3.72545 -7.446 -0.711591 -4.4863 4.0596 -0.360808 -2.64946 0.0626982 4.17848 -1.02486 0.046356 -7.72834 9.1967 -4.92854 -1.27155 -17.465 -0.237699 0.097898 -2.17489 0.513435 -0.529163 -17.3815 -1.19582 6.88201 -2.23747 10.2281 0.711591 -4.4863 4.0596 -0.0553165 -0.165289 0.00891225 
